<svg width="222" height="222" viewBox="0 0 222 222" fill="none" xmlns="http://www.w3.org/2000/svg">
<path fill-rule="evenodd" clip-rule="evenodd" d="M26 67C26 63.6863 28.6863 61 32 61H190C193.314 61 196 63.6863 196 67V155C196 158.314 193.314 161 190 161H32C28.6863 161 26 158.314 26 155V67Z" fill="#F2F7F9"/>
<mask id="mask0_232_605" style="mask-type:luminance" maskUnits="userSpaceOnUse" x="26" y="61" width="170" height="100">
<path fill-rule="evenodd" clip-rule="evenodd" d="M26 67C26 63.6863 28.6863 61 32 61H190C193.314 61 196 63.6863 196 67V155C196 158.314 193.314 161 190 161H32C28.6863 161 26 158.314 26 155V67Z" fill="white"/>
</mask>
<g mask="url(#mask0_232_605)">
<path fill-rule="evenodd" clip-rule="evenodd" d="M224.979 174.448L15.7128 169.913L9.97949 131.332C9.97949 131.332 37.6906 91.1765 49.1573 91.1765C72.0421 91.1765 82.7805 131.332 105.535 131.332C128.29 131.332 122.809 91.1765 142.802 91.1765C162.794 91.1765 156.404 117.16 175.291 117.16C194.177 117.16 187.713 91.1765 203.957 92.7512C220.202 94.3259 198.056 127.17 210.172 127.17C222.287 127.17 224.979 174.448 224.979 174.448Z" fill="#DDEAF3"/>
<path fill-rule="evenodd" clip-rule="evenodd" d="M224.979 174.448H-14.0205C-14.0205 174.448 -0.080512 155.929 15.6155 143.421C24.2022 136.579 28.9877 111.449 43.3395 111.449C57.6913 111.449 57.8584 149.126 80.6235 149.126C103.389 149.126 100.038 114.789 115.039 114.789C130.041 114.789 122.912 133.172 141.807 133.172C160.703 133.172 165.775 71.7832 187.189 97.4494C208.604 123.116 198.044 143.421 210.165 143.421C222.286 143.421 224.979 174.448 224.979 174.448Z" fill="#BFD4E4"/>
</g>
</svg>
