<svg width="222" height="222" viewBox="0 0 222 222" fill="none" xmlns="http://www.w3.org/2000/svg">
<rect x="26" y="61" width="170" height="99.4505" rx="4" fill="#BFD4E4"/>
<path fill-rule="evenodd" clip-rule="evenodd" d="M114.188 85.3593C114.188 84.807 114.635 84.3593 115.188 84.3593H123.812C124.365 84.3593 124.812 84.807 124.812 85.3593V143C124.812 143.552 124.365 144 123.812 144H115.188C114.635 144 114.188 143.552 114.188 143V85.3593ZM80.1875 94.9018C80.1875 94.3495 80.6352 93.9018 81.1875 93.9018H89.8125C90.3648 93.9018 90.8125 94.3495 90.8125 94.9018V143C90.8125 143.552 90.3648 144 89.8125 144H81.1875C80.6352 144 80.1875 143.552 80.1875 143V94.9018ZM64.1875 112.987C63.6352 112.987 63.1875 113.435 63.1875 113.987V143C63.1875 143.552 63.6352 144 64.1875 144H72.8125C73.3648 144 73.8125 143.552 73.8125 143V113.987C73.8125 113.435 73.3648 112.987 72.8125 112.987H64.1875ZM47.1875 122.529C46.6352 122.529 46.1875 122.977 46.1875 123.529V143C46.1875 143.552 46.6352 144 47.1875 144H55.8125C56.3648 144 56.8125 143.552 56.8125 143V123.529C56.8125 122.977 56.3648 122.529 55.8125 122.529H47.1875ZM98.1875 101.059C97.6352 101.059 97.1875 101.506 97.1875 102.059V143C97.1875 143.552 97.6352 144 98.1875 144H106.812C107.365 144 107.812 143.552 107.812 143V102.059C107.812 101.506 107.365 101.059 106.812 101.059H98.1875ZM132.188 94.6421C131.635 94.6421 131.188 95.0899 131.188 95.6421V143C131.188 143.552 131.635 144 132.188 144H140.812C141.365 144 141.812 143.552 141.812 143V95.6421C141.812 95.0899 141.365 94.6421 140.812 94.6421H132.188ZM148.188 103.868C148.188 103.316 148.635 102.868 149.188 102.868H157.812C158.365 102.868 158.812 103.316 158.812 103.868V143C158.812 143.552 158.365 144 157.812 144H149.188C148.635 144 148.188 143.552 148.188 143V103.868ZM166.188 84.3593C165.635 84.3593 165.188 84.807 165.188 85.3593V143C165.188 143.552 165.635 144 166.188 144H174.812C175.365 144 175.812 143.552 175.812 143V85.3593C175.812 84.807 175.365 84.3593 174.812 84.3593H166.188Z" fill="#F2F7F9"/>
</svg>
