<svg xmlns="http://www.w3.org/2000/svg" width="222" height="222" fill="none" viewBox="0 0 222 222"><rect width="170" height="99.451" x="26" y="61" fill="#BFD4E4" rx="4"/><path fill="#DDEAF3" fill-rule="evenodd" d="M111.017 139.173C126.719 139.173 139.448 126.444 139.448 110.742C139.448 95.04 126.719 82.311 111.017 82.311C95.315 82.311 82.5859 95.04 82.5859 110.742C82.5859 126.444 95.315 139.173 111.017 139.173Z" clip-rule="evenodd"/><path fill="#fff" fill-rule="evenodd" d="M139.442 110.163C139.308 103.586 136.898 97.26 132.622 92.2615C128.347 87.263 122.47 83.9016 115.994 82.7501C109.518 81.5986 102.843 82.7282 97.1064 85.9466C91.3698 89.1649 86.9266 94.2727 84.5338 100.4C82.141 106.527 81.9467 113.294 83.9841 119.548C86.0214 125.802 90.1642 131.157 95.7067 134.699C101.249 138.241 107.848 139.752 114.38 138.974C120.911 138.196 126.971 135.177 131.526 130.432L111.017 110.742L139.442 110.163Z" clip-rule="evenodd"/><path fill="#F2F7F9" fill-rule="evenodd" d="M139.448 110.742C139.448 105.571 138.038 100.499 135.37 96.0698C132.701 91.6408 128.875 88.0235 124.304 85.607C119.733 83.1905 114.589 82.0663 109.427 82.3556C104.264 82.6448 99.2781 84.3364 95.0054 87.2484L111.017 110.742H139.448Z" clip-rule="evenodd"/></svg>