<svg width="13" height="15" viewBox="0 0 13 15" fill="none" xmlns="http://www.w3.org/2000/svg">
<path d="M7.85752 3.29717L10.4632 5.90288M1.66895 12.0915H4.27466L11.1147 5.25145C11.4602 4.90592 11.6543 4.43726 11.6543 3.9486C11.6543 3.45993 11.4602 2.99128 11.1147 2.64574C10.7691 2.3002 10.3005 2.10608 9.8118 2.10608C9.32314 2.10608 8.85448 2.3002 8.50895 2.64574L1.66895 9.48574V12.0915Z" stroke="#907AD6" stroke-width="1.38857" stroke-linecap="round" stroke-linejoin="round"/>
<path d="M9.2103 9.08332L9.21031 9.08328C9.3033 8.80432 9.69749 8.80432 9.79048 9.08328L9.79049 9.08332L10.113 10.0518C10.113 10.0518 10.113 10.0518 10.113 10.0518C10.1778 10.2463 10.2871 10.423 10.4321 10.5679C10.5771 10.7128 10.7538 10.822 10.9484 10.8867L10.9484 10.8867L11.9164 11.2092L11.9164 11.2092C12.1954 11.3022 12.1954 11.6964 11.9164 11.7894L11.9164 11.7894L10.9479 12.1119C10.7534 12.1767 10.5767 12.286 10.4318 12.431C10.2869 12.576 10.1777 12.7528 10.113 12.9473L10.113 12.9473L9.79066 13.9148C9.79063 13.9149 9.79059 13.915 9.79055 13.9151L9.79049 13.9153L9.67189 13.8758C9.66004 13.9119 9.63707 13.9434 9.60627 13.9657C9.57548 13.988 9.53842 14 9.50039 14C9.46237 14 9.42531 13.988 9.39451 13.9657C9.36372 13.9434 9.34075 13.9119 9.32889 13.8758L9.2103 9.08332ZM9.2103 9.08332L8.88781 10.0518L9.2103 9.08332ZM10.0504 6.93081L10.4374 6.80181C10.6104 6.74431 10.7459 6.60881 10.8034 6.43581L10.0504 6.93081ZM10.0504 6.93081C10.0362 6.93575 10.0238 6.945 10.0151 6.95727C10.0063 6.96955 10.0016 6.98424 10.0016 6.99931C10.0016 7.01438 10.0063 7.02907 10.0151 7.04135C10.0238 7.05363 10.0362 7.06288 10.0504 7.06781M10.0504 6.93081V7.06781M10.0504 7.06781L10.4369 7.19681L10.0504 7.06781ZM7.27873 6.53402C7.29416 6.48742 7.32388 6.44687 7.36368 6.41813C7.40347 6.38939 7.45131 6.37392 7.50039 6.37392C7.54948 6.37392 7.59732 6.38939 7.63711 6.41813C7.67688 6.44685 7.70659 6.48737 7.72203 6.53394L7.72199 6.53381L7.60339 6.57331L7.72206 6.53402L7.91546 7.11472C7.9895 7.33641 8.16321 7.51015 8.38489 7.58422L7.27873 6.53402ZM7.27873 6.53402L7.0853 7.1148C7.0853 7.11481 7.0853 7.11481 7.0853 7.11481C7.04887 7.22413 6.98749 7.32346 6.90602 7.40494C6.82454 7.48641 6.72521 7.54779 6.6159 7.58422C6.61589 7.58422 6.61589 7.58422 6.61588 7.58422L6.0351 7.77765C6.03508 7.77766 6.03505 7.77766 6.03503 7.77767L6.0349 7.77772L6.07439 7.89631C6.05274 7.90348 6.0339 7.91729 6.02054 7.93578C6.00719 7.95427 6 7.9765 6 7.99931C6 8.02212 6.00719 8.04435 6.02054 8.06284L7.27873 6.53402ZM10.8138 6.00787L10.8069 6.02776V6.02908L10.6848 6.39638L10.6848 6.39639C10.6397 6.53198 10.5336 6.63813 10.398 6.68319L10.3979 6.68323L10.0109 6.81223L10.0109 6.81222L10.0094 6.81271C9.97067 6.82615 9.93703 6.85135 9.91323 6.88479C9.88943 6.91824 9.87664 6.95826 9.87664 6.99931C9.87664 7.04036 9.88943 7.08039 9.91323 7.11383C9.93703 7.14727 9.97066 7.17247 10.0094 7.18592L10.0094 7.18592L10.0108 7.18638L10.3973 7.31538L10.3974 7.31542C10.4643 7.33765 10.525 7.37515 10.5748 7.42494C10.6246 7.47474 10.6621 7.53545 10.6843 7.60227L10.6843 7.60234L10.8133 7.98934L10.8133 7.98934L10.8138 7.99076C10.8272 8.02954 10.8524 8.06317 10.8859 8.08697C10.9193 8.11077 10.9593 8.12356 11.0004 8.12356C11.0414 8.12356 11.0815 8.11077 11.1149 8.08697C11.1484 8.06317 11.1736 8.02954 11.187 7.99076L11.187 7.99076L11.1875 7.98934L11.3165 7.60234L11.3165 7.60227C11.3387 7.53545 11.3762 7.47474 11.426 7.42494C11.4758 7.37515 11.5365 7.33765 11.6034 7.31542L11.6034 7.3154L11.9904 7.1864L11.9904 7.18641L11.9918 7.18592C12.0306 7.17247 12.0643 7.14727 12.0881 7.11383C12.1119 7.08039 12.1246 7.04036 12.1246 6.99931C12.1246 6.95826 12.1119 6.91824 12.0881 6.88479C12.0643 6.85135 12.0306 6.82615 11.9918 6.81271L11.9918 6.8127L11.9904 6.81223L11.6034 6.68323L11.6033 6.68319C11.4677 6.63813 11.3616 6.53198 11.3165 6.39639L11.3165 6.39628L11.1875 6.00928L11.1875 6.00928L11.187 6.00787C11.1736 5.96908 11.1484 5.93545 11.1149 5.91165C11.0815 5.88785 11.0414 5.87506 11.0004 5.87506C10.9593 5.87506 10.9193 5.88785 10.8859 5.91165C10.8524 5.93545 10.8272 5.96908 10.8138 6.00787ZM8.96569 7.77765L8.38499 7.58425L8.96589 7.77772L8.96583 7.7777C8.96578 7.77768 8.96573 7.77766 8.96569 7.77765ZM6.0351 8.22098L6.61588 8.4144C6.7252 8.45083 6.82454 8.51221 6.90602 8.59369C6.98749 8.67516 7.04887 8.77449 7.0853 8.88381C7.0853 8.88381 7.0853 8.88382 7.0853 8.88382L7.27873 9.46461C7.27875 9.46465 7.27876 9.4647 7.27878 9.46475L7.2788 9.46481L7.39739 9.42531C7.40456 9.44697 7.41837 9.46581 7.43687 9.47916C7.45536 9.49252 7.47758 9.49971 7.50039 9.49971C7.5232 9.49971 7.54543 9.49252 7.56392 9.47916C7.58241 9.46581 7.59622 9.44697 7.60339 9.42531L7.72199 9.46481L7.72201 9.46475C7.72203 9.4647 7.72204 9.46465 7.72206 9.46461L7.91548 8.88382C7.91549 8.88382 7.91549 8.88381 7.91549 8.88381C7.95191 8.77449 8.01329 8.67516 8.09477 8.59369C8.17625 8.51221 8.27558 8.45083 8.3849 8.4144L8.96569 8.22098C8.96571 8.22097 8.96573 8.22096 8.96574 8.22096L8.96589 8.22091L6.0351 8.22098Z" fill="#F6AE2D" stroke="#F4F4F4" stroke-width="0.25"/>
</svg>
